<svg width="356" height="331" viewBox="0 0 356 331" fill="none" xmlns="http://www.w3.org/2000/svg">
<path d="M140.539 42.469C136.388 42.6365 132.302 43.8743 129.129 46.183C122.29 51.1615 122.29 59.2328 129.129 64.2113C132.549 66.7004 137.031 67.9451 141.514 67.9451C145.996 67.9451 150.479 66.7004 153.898 64.2113C157.069 61.9026 158.77 58.9284 159 55.9064L140.539 42.469ZM136.601 59.4563H133.133L136.809 54.9956L138.497 57.0418L136.601 59.4563ZM138.281 59.4563L144.106 52.0365L149.932 59.4563H138.281ZM155.268 54.692C154.147 54.5509 153.049 54.3223 151.984 54.0082C149.994 53.4204 148.207 52.557 146.674 51.4414C145.029 50.2445 143.788 48.8408 142.983 47.2691C142.634 46.588 142.376 45.8922 142.207 45.1851L155.268 54.692ZM156.217 59.8995C155.415 61.227 154.287 62.4251 152.866 63.4603C151.333 64.5759 149.546 65.4397 147.556 66.0271C145.632 66.595 143.6 66.8827 141.514 66.8827C139.428 66.8827 137.395 66.595 135.472 66.0271C133.481 65.4397 131.695 64.5759 130.162 63.4603C128.629 62.3442 127.442 61.0439 126.635 59.595C125.855 58.1948 125.459 56.7153 125.459 55.1973C125.459 53.6789 125.854 52.1994 126.635 50.7992C127.442 49.3503 128.629 48.05 130.162 46.934C131.584 45.8988 133.23 45.0786 135.053 44.4959C136.621 43.9947 138.274 43.6826 139.981 43.5648L140.547 43.9769C140.743 46.2607 141.779 48.5138 143.656 50.4692L139.325 55.9845L136.809 52.9306L130.554 60.5187H135.767H143.064H152.446L146.23 52.6006C149.278 54.6251 153.07 55.7249 156.928 55.9001L157.495 56.313C157.334 57.5546 156.904 58.7589 156.217 59.8995Z" fill="url(#paint0_linear)" style="mix-blend-mode:multiply"/>
<path d="M291.31 37.3738L282.554 44.8083L281.756 45.4858L273 52.9203L290.876 63.992L299.633 56.5575L300.431 55.88L309.187 48.4454L291.31 37.3738ZM290.787 62.8151L274.616 52.7997L282.608 46.0137L298.78 56.0291L290.787 62.8151ZM283.406 45.3362L291.399 38.5502L307.57 48.5657L299.578 55.3516L283.406 45.3362L283.406 45.3362Z" fill="white"/>
<path d="M293.025 44.695L293.46 43.0225L287.968 44.4528L289.804 45.5901L292.375 47.1825L295.677 49.228L297.348 43.4963L293.025 44.695ZM290.251 44.7379L291.97 44.2882L291.772 45.0446L291.061 45.2401L290.251 44.7379ZM292.049 45.8515L295.8 44.8109L294.97 47.6611L292.049 45.8515Z" fill="white"/>
<path d="M294.64 49.5658L287.692 45.2526C287.454 45.1049 287.083 45.1327 286.867 45.3161C286.655 45.497 286.675 45.768 286.913 45.9157L293.86 50.2289C294.101 50.3781 294.468 50.348 294.681 50.167C294.896 49.9837 294.88 49.715 294.64 49.5658Z" fill="white"/>
<path d="M279.103 52.5472C278.87 52.4026 278.508 52.4277 278.297 52.6072C278.085 52.7867 278.108 53.0496 278.341 53.1942C278.577 53.3403 278.939 53.3155 279.15 53.136C279.362 52.9564 279.339 52.6933 279.103 52.5472Z" fill="white"/>
<path d="M280.847 53.6309C280.614 53.4867 280.252 53.5118 280.041 53.6913C279.829 53.8708 279.852 54.1337 280.085 54.2779C280.321 54.424 280.682 54.3992 280.894 54.2197C281.105 54.0402 281.083 53.777 280.847 53.6309Z" fill="white"/>
<path d="M282.594 54.7167C282.358 54.5706 281.996 54.5956 281.784 54.7751C281.573 54.9546 281.596 55.2176 281.832 55.3637C282.064 55.5079 282.426 55.4831 282.638 55.3036C282.849 55.124 282.827 54.8609 282.594 54.7167Z" fill="white"/>
<path d="M284.336 55.8005C284.1 55.6544 283.738 55.6794 283.527 55.8589C283.316 56.0384 283.338 56.3014 283.574 56.4475C283.806 56.5913 284.168 56.5665 284.38 56.387C284.591 56.2074 284.569 55.9443 284.336 55.8005Z" fill="white"/>
<path d="M286.081 56.8848C285.845 56.7387 285.486 56.7653 285.274 56.9448C285.063 57.1243 285.083 57.3857 285.319 57.5318C285.555 57.6779 285.913 57.6508 286.124 57.4712C286.336 57.2917 286.317 57.0309 286.081 56.8848Z" fill="white"/>
<path d="M283.811 54.4806L287.113 56.5262L288.782 50.7966L284.459 51.9955L284.896 50.3206L279.404 51.7509L281.24 52.8882L283.811 54.4806L283.811 54.4806ZM286.404 54.9614L283.482 53.1518L287.234 52.1115L286.404 54.9614ZM281.684 52.0382L283.403 51.5887L283.209 52.3427L282.495 52.5404L281.684 52.0382L281.684 52.0382Z" fill="white"/>
<path d="M303.572 50.7372C303.555 50.5071 303.283 50.3386 302.967 50.3622L300.098 50.5786L300.035 49.743C300.018 49.5129 299.746 49.3444 299.43 49.368C299.113 49.3916 298.873 49.5962 298.887 49.8287L298.981 51.0797C299.001 51.3114 299.27 51.4783 299.586 51.4547L303.03 51.1978C303.346 51.1742 303.589 50.9672 303.572 50.7372Z" fill="white"/>
<path d="M290.495 58.3314C290.515 58.5623 290.781 58.7307 291.098 58.7051L291.101 58.7066L292.242 58.6196L292.305 59.4523C292.322 59.6816 292.593 59.8495 292.908 59.826C293.223 59.8025 293.464 59.5984 293.449 59.3669L293.384 58.5364L294.528 58.451C294.843 58.4275 295.086 58.2212 295.068 57.9922C295.051 57.7629 294.78 57.595 294.465 57.6185L293.321 57.7037L293.261 56.8728L293.258 56.8713C293.241 56.642 292.973 56.4757 292.655 56.4976C292.34 56.5209 292.097 56.7271 292.115 56.9564L292.177 57.7891L291.036 57.8724C290.718 57.898 290.478 58.1021 290.495 58.3314Z" fill="white"/>
<path d="M269.011 129.42L269.813 128.085L270.08 127.639L270.347 127.195C268.881 126.81 268.288 125.498 269.025 124.271C269.762 123.044 271.554 122.359 273.02 122.743L273.288 122.298L273.555 121.853L274.357 120.518L273.846 113.17L266.928 113.417L266.387 116.366L254.158 113.158L246.673 125.621L258.902 128.829L256.235 131.221L261.015 134.535L269.011 129.42ZM257.896 131.03L259.742 129.375L260.913 128.326L259.437 127.938L248.272 125.009L254.687 114.327L265.853 117.256L267.328 117.643L267.566 116.349L267.939 114.308L272.711 114.138L273.152 120.475L272.414 121.704C270.646 121.683 268.809 122.581 267.962 123.992C267.114 125.404 267.519 126.89 268.827 127.676L268.089 128.904L261.192 133.317L257.896 131.03Z" fill="url(#paint1_linear)" style="mix-blend-mode:multiply"/>
<path d="M260.688 121.262L262.785 120.875L259.99 117.803L258.984 119.484L257.574 121.838L255.762 124.864L262.978 123.649L260.688 121.262ZM260.108 119.639L260.743 120.337L259.942 120.485L259.732 120.266L260.108 119.639L260.108 119.639ZM259.124 121.282L260.86 123.092L257.724 123.62L259.124 121.282Z" fill="url(#paint2_linear)" style="mix-blend-mode:multiply"/>
<g clip-path="url(#clip0)">
<path d="M27 326.05L18.2733 317L24.8865 310.141C26.2049 308.775 26.2049 306.559 24.8865 305.192C24.2273 304.508 23.3638 304.166 22.5003 304.166C21.6368 304.166 20.7724 304.508 20.1132 305.192L13.5 312.05L4.7733 303L0 307.95L8.7267 317L1.12472 324.884V329.834H5.89802L13.5 321.95L22.2267 331L27 326.05ZM17.4773 316.175L16.2875 314.941L21.3105 309.733L22.5003 310.966L17.4773 316.175ZM20.9092 306.016C21.3343 305.576 21.8988 305.333 22.5003 305.333C23.101 305.333 23.6662 305.576 24.0914 306.016C24.9681 306.926 24.9681 308.407 24.0914 309.316L23.2954 310.141L20.1132 306.841L20.9092 306.016ZM19.3181 307.666L20.5145 308.908L15.4924 314.116L14.2952 312.875L19.3181 307.666ZM4.7733 304.65L6.34052 306.275L5.54454 307.1C5.32538 307.328 5.32538 307.698 5.54454 307.925C5.76455 308.153 6.12051 308.153 6.34052 307.925C6.34052 307.925 6.34052 307.925 6.34136 307.924L7.13565 307.1L8.72675 308.75L7.93162 309.575C7.71161 309.803 7.71161 310.173 7.93162 310.4C8.15078 310.628 8.50758 310.628 8.72675 310.4C8.72675 310.4 8.72675 310.4 8.72675 310.4L9.52272 309.575L11.1138 311.225L10.3187 312.05C10.3187 312.05 10.3178 312.05 10.3178 312.05C10.0987 312.278 10.0987 312.647 10.3178 312.875C10.5379 313.103 10.8938 313.103 11.1138 312.875V312.875L11.909 312.05L13.5 313.7L12.7049 314.525C12.4849 314.753 12.4849 315.122 12.7049 315.35C12.924 315.578 13.28 315.578 13.5 315.35L14.2951 314.525L15.8862 316.175L15.0911 317C14.8711 317.228 14.8711 317.597 15.0911 317.825C15.3103 318.053 15.6671 318.053 15.8862 317.825C15.8871 317.825 15.8871 317.825 15.8871 317.825L16.6822 317L18.2733 318.65L17.4773 319.475V319.475C17.2582 319.703 17.2582 320.072 17.4773 320.3C17.6973 320.528 18.0533 320.528 18.2733 320.3L19.0684 319.475L20.6595 321.125L19.8644 321.95C19.6444 322.178 19.6444 322.547 19.8644 322.775C20.0836 323.002 20.4395 323.003 20.6595 322.775C20.6595 322.775 20.6595 322.775 20.6595 322.774L21.4547 321.95L23.0458 323.6L22.2515 324.424L22.2506 324.425C22.0306 324.652 22.0306 325.022 22.2506 325.25C22.4706 325.477 22.8266 325.477 23.0458 325.25L23.8417 324.425L25.409 326.05L22.2267 329.35L1.5911 307.95L4.7733 304.65ZM2.24944 328.667V327.7L3.1822 328.667H2.24944ZM5.43164 328.667H4.77246L2.24944 326.05V325.367L9.52267 317.825L10.7191 319.066L5.10616 324.887C4.88616 325.115 4.88616 325.485 5.10616 325.712C5.32533 325.94 5.68128 325.94 5.90129 325.712L11.515 319.891L12.7048 321.125L5.43164 328.667Z" fill="white"/>
</g>
<path d="M223 67.0503L214.273 58L220.887 51.1414C222.205 49.7747 222.205 47.5585 220.887 46.1918C220.227 45.5082 219.364 45.1664 218.5 45.1664C217.637 45.1664 216.772 45.5082 216.113 46.1918L209.5 53.0503L200.773 44L196 48.9497L204.727 58L197.125 65.8835V70.8336H201.898L209.5 62.9497L218.227 72L223 67.0503ZM213.477 57.175L212.288 55.9411L217.31 50.7326L218.5 51.9664L213.477 57.175ZM216.909 47.0163C217.334 46.5758 217.899 46.3332 218.5 46.3332C219.101 46.3332 219.666 46.5759 220.091 47.0163C220.968 47.9264 220.968 49.4068 220.091 50.3164L219.295 51.1414L216.113 47.8414L216.909 47.0163ZM215.318 48.6664L216.515 49.9075L211.492 55.1161L210.295 53.8753L215.318 48.6664ZM200.773 45.65L202.341 47.2753L201.545 48.1003C201.325 48.328 201.325 48.6976 201.545 48.9253C201.765 49.153 202.121 49.153 202.341 48.9253C202.341 48.9253 202.341 48.9249 202.341 48.9244L203.136 48.1003L204.727 49.7503L203.932 50.5754C203.712 50.8031 203.712 51.1726 203.932 51.4004C204.151 51.6281 204.508 51.6281 204.727 51.4004C204.727 51.3999 204.727 51.3999 204.727 51.3999L205.523 50.5754L207.114 52.2254L206.319 53.0495C206.319 53.0495 206.318 53.05 206.318 53.0504C206.099 53.2781 206.099 53.6473 206.318 53.875C206.538 54.1031 206.894 54.1031 207.114 53.875V53.8754L207.909 53.0504L209.5 54.6999L208.705 55.525C208.485 55.7531 208.485 56.1223 208.705 56.35C208.924 56.5777 209.28 56.5777 209.5 56.35L210.295 55.525L211.886 57.175L211.091 58C210.871 58.2277 210.871 58.5973 211.091 58.825C211.31 59.0527 211.667 59.0527 211.886 58.825C211.887 58.8246 211.887 58.8246 211.887 58.8246L212.682 58L214.273 59.65L213.477 60.4746V60.475C213.258 60.7028 213.258 61.0719 213.477 61.3001C213.697 61.5278 214.053 61.5278 214.273 61.3001L215.068 60.475L216.66 62.1251L215.864 62.9497C215.644 63.1778 215.644 63.547 215.864 63.7747C216.084 64.0024 216.44 64.0028 216.66 63.7747C216.66 63.7747 216.66 63.7747 216.66 63.7742L217.455 62.9497L219.046 64.5997L218.251 65.4243L218.251 65.4247C218.031 65.6524 218.031 66.022 218.251 66.2497C218.471 66.4774 218.827 66.4774 219.046 66.2497L219.842 65.4247L221.409 67.0504L218.227 70.35L197.591 48.9497L200.773 45.65ZM198.249 69.6668V68.7004L199.182 69.6668H198.249ZM201.432 69.6668H200.772L198.249 67.0503V66.3672L205.523 58.825L206.719 60.0661L201.106 65.8874C200.886 66.1151 200.886 66.4847 201.106 66.7124C201.325 66.9401 201.681 66.9401 201.901 66.7124L207.515 60.8912L208.705 62.1247L201.432 69.6668Z" fill="url(#paint3_linear)" style="mix-blend-mode:multiply"/>
<path d="M217.821 161.543L212.81 165.075C212.579 165.238 212.575 165.507 212.8 165.676C213.026 165.846 213.396 165.852 213.627 165.689L218.638 162.157C218.869 161.994 218.873 161.725 218.647 161.555C218.422 161.386 218.052 161.38 217.821 161.543Z" fill="url(#paint4_linear)" style="mix-blend-mode:multiply"/>
<path d="M212.005 164.472L213.673 163.296C213.903 163.133 213.908 162.865 213.683 162.695C213.457 162.526 213.088 162.521 212.858 162.683L211.189 163.859C210.959 164.022 210.955 164.29 211.18 164.459C211.405 164.629 211.774 164.634 212.005 164.472Z" fill="url(#paint5_linear)" style="mix-blend-mode:multiply"/>
<path d="M224.08 155.634L222.064 155.235L223.264 158.91L224.851 157.791L227.071 156.226L229.928 154.212L223.043 152.737L224.08 155.634ZM223.92 157.26L223.647 156.425L224.416 156.577L224.511 156.843L223.92 157.26ZM225.471 156.167L224.685 153.971L227.677 154.612L225.471 156.167Z" fill="url(#paint6_linear)" style="mix-blend-mode:multiply"/>
<path d="M220.579 145.395L201.417 158.901C201.187 159.063 201.182 159.332 201.407 159.501L212.816 168.074C213.04 168.243 213.41 168.248 213.64 168.086L232.802 154.579C233.031 154.418 233.036 154.149 232.811 153.98L221.402 145.407C221.177 145.238 220.808 145.233 220.579 145.395ZM220.159 146.877L216.722 156.238C216.694 156.312 216.534 156.425 216.431 156.443L203.463 158.646L220.159 146.877ZM213.241 167.18L203.123 159.577L216.706 157.269C216.963 157.225 217.214 157.117 217.419 156.973C217.623 156.829 217.78 156.65 217.848 156.464L221.45 146.656L231.57 154.261L213.241 167.18Z" fill="url(#paint7_linear)" style="mix-blend-mode:multiply"/>
<path d="M178 10.2433C178 5.12682 172.329 0.97934 165.333 0.97934C163.026 0.97934 160.864 1.43053 159 2.21892C157.136 1.43059 154.974 0.97934 152.667 0.97934C145.671 0.97934 140 5.12682 140 10.2433C140 13.7 142.588 16.7139 146.425 18.3059C147.177 22.8966 152.52 26.4554 159 26.4554C165.48 26.4554 170.823 22.8966 171.575 18.3059C175.412 16.7139 178 13.7 178 10.2433ZM148.164 18.9043C149.564 19.2936 151.081 19.5073 152.667 19.5073C154.974 19.5073 157.136 19.0561 159 18.2677C160.864 19.0561 163.026 19.5073 165.333 19.5073C166.919 19.5073 168.436 19.2936 169.836 18.9043C169.691 19.3967 169.483 19.8784 169.213 20.3462C168.655 21.3113 167.855 22.1786 166.837 22.9233C165.819 23.668 164.634 24.2528 163.314 24.6612C161.948 25.0836 160.497 25.2978 159 25.2978C157.503 25.2978 156.052 25.0836 154.686 24.6612C153.366 24.2528 152.181 23.668 151.163 22.9233C150.145 22.1786 149.345 21.3114 148.787 20.3462C148.517 19.8784 148.309 19.3967 148.164 18.9043ZM170.071 17.5735C169.931 17.6219 169.79 17.6685 169.647 17.713C168.282 18.1354 166.83 18.3496 165.333 18.3496C163.836 18.3496 162.385 18.1355 161.02 17.713C160.838 17.6566 160.66 17.5968 160.482 17.5341C163.338 15.8937 165.207 13.3751 165.326 10.5342C165.863 10.8078 166.369 11.1165 166.837 11.4596C167.855 12.2043 168.655 13.0715 169.213 14.0363C169.791 15.035 170.083 16.0965 170.083 17.1914C170.083 17.3195 170.079 17.4467 170.071 17.5735ZM163.737 9.86124C163.745 9.98805 163.75 10.1153 163.75 10.2433C163.75 11.3383 163.458 12.3998 162.88 13.398C162.321 14.3632 161.522 15.2305 160.504 15.9752C160.037 16.317 159.535 16.6245 159 16.8967C158.465 16.6245 157.963 16.317 157.496 15.9752C156.478 15.2305 155.679 14.3633 155.12 13.398C154.542 12.3998 154.25 11.3383 154.25 10.2433C154.25 10.1153 154.255 9.98805 154.263 9.86124C154.402 9.81288 154.543 9.76625 154.686 9.72174C156.052 9.29937 157.503 9.08517 159 9.08517C160.497 9.08517 161.948 9.29932 163.314 9.72174C163.457 9.76625 163.598 9.81288 163.737 9.86124ZM159 7.92744C157.415 7.92744 155.897 8.14121 154.498 8.53047C154.643 8.03813 154.85 7.55637 155.12 7.08862C155.679 6.12343 156.478 5.25617 157.496 4.51147C157.963 4.16966 158.465 3.86221 159 3.58993C159.535 3.86221 160.037 4.16966 160.504 4.51147C161.522 5.25617 162.321 6.12338 162.88 7.08862C163.151 7.55637 163.358 8.03813 163.502 8.53047C162.103 8.14115 160.585 7.92744 159 7.92744ZM152.674 10.5342C152.793 13.3751 154.662 15.8937 157.518 17.5341C157.341 17.5968 157.162 17.6566 156.98 17.713C155.615 18.1354 154.164 18.3496 152.667 18.3496C151.17 18.3496 149.718 18.1355 148.353 17.713C148.211 17.6685 148.069 17.6218 147.929 17.5735C147.921 17.4467 147.917 17.3195 147.917 17.1914C147.917 16.0965 148.209 15.035 148.787 14.0367C149.345 13.0715 150.145 12.2043 151.163 11.4596C151.631 11.1165 152.137 10.8078 152.674 10.5342ZM157.518 2.9526C154.94 4.43266 153.168 6.62766 152.759 9.12887C149.03 10.6759 146.481 13.5664 146.34 16.9005C145.803 16.627 145.299 16.3183 144.83 15.9752C143.811 15.2305 143.012 14.3633 142.454 13.398C141.876 12.3998 141.583 11.3383 141.583 10.2433C141.583 9.14836 141.876 8.08687 142.454 7.08862C143.012 6.12343 143.811 5.25617 144.83 4.51147C145.848 3.76678 147.033 3.182 148.353 2.77358C149.718 2.35121 151.17 2.13701 152.667 2.13701C154.164 2.13701 155.615 2.35116 156.98 2.77358C157.162 2.83003 157.341 2.8898 157.518 2.9526ZM175.546 7.08862C176.124 8.08693 176.417 9.14836 176.417 10.2433C176.417 11.3383 176.124 12.3998 175.546 13.398C174.988 14.3632 174.189 15.2305 173.17 15.9752C172.702 16.3183 172.197 16.627 171.66 16.9005C171.519 13.5664 168.97 10.6759 165.241 9.12887C164.832 6.62766 163.06 4.4326 160.482 2.9526C160.66 2.88985 160.838 2.83003 161.02 2.77363C162.385 2.35126 163.836 2.13707 165.333 2.13707C166.83 2.13707 168.282 2.35121 169.647 2.77363C170.967 3.182 172.152 3.76683 173.17 4.51153C174.189 5.25617 174.988 6.12343 175.546 7.08862Z" fill="url(#paint8_linear)" style="mix-blend-mode:multiply"/>
<path d="M67.9954 31.4224L74.9646 34.8409L77.9516 36.3061L84.9216 39.7249L104.263 21.1767L85.3464 11.8976L67.9954 31.4224ZM69.7144 31.0974L71.1608 29.4707L77.2579 32.4614L75.7292 34.0476L69.7144 31.0974ZM76.7253 34.5363L79.7828 31.3638L80.7782 31.852L77.7207 35.0245L76.7253 34.5363ZM78.7161 35.5128L80.2448 33.9265L86.3427 36.9176L84.7308 38.4631L78.7161 35.5128ZM102.461 21.4613L87.1488 36.1447L81.0094 33.1333L82.5381 31.547C82.7492 31.328 82.6978 31.0414 82.4229 30.9066C82.148 30.7717 81.7538 30.8397 81.5427 31.0587C81.7538 30.8397 81.7017 30.5528 81.4268 30.4179C81.1518 30.2831 80.7584 30.3515 80.5473 30.5705C80.7584 30.3515 80.7063 30.0646 80.4314 29.9297C80.1564 29.7948 79.7623 29.8628 79.5512 30.0819L78.0224 31.6681L71.8838 28.657L85.6193 13.2002L102.461 21.4613Z" fill="white"/>
<path d="M83.1405 26.5809L88.84 24.383L88.4814 26.7118L95.7357 24.047L93.0841 22.7459L89.372 20.9244L84.5989 18.5823L83.1405 26.5809ZM93.1695 23.9766L89.9923 25.1434L90.1891 23.8623L91.7279 23.2693L93.1694 23.9767L93.1695 23.9766ZM90.5616 22.6969L84.7073 24.9547L85.5659 20.2456L90.5616 22.6969Z" fill="white"/>
<g clip-path="url(#clip1)">
<path d="M329.285 183.636C329.285 181.387 327.462 179.563 325.212 179.563C324.911 179.563 324.618 179.596 324.335 179.658L321.636 176.959L328.961 169.633C330.23 168.364 330.23 166.307 328.961 165.038C328.327 164.404 327.496 164.086 326.664 164.086C325.833 164.086 325.001 164.404 324.366 165.038L317.04 172.364L308.697 164.02C308.274 163.597 307.719 163.386 307.166 163.386C306.611 163.386 306.056 163.597 305.633 164.02C304.788 164.866 304.788 166.237 305.633 167.084L313.977 175.427L306.085 183.319V187.914H310.681L318.572 180.022L321.248 182.698C321.177 182.999 321.138 183.313 321.138 183.636C321.138 188.249 327.941 188.614 330.19 188.614C332.44 188.615 329.285 185.886 329.285 183.636ZM326.664 165.169C327.243 165.169 327.786 165.395 328.195 165.804C329.04 166.648 329.04 168.023 328.195 168.867L327.43 169.633L324.366 166.569L325.132 165.804C325.541 165.395 326.085 165.169 326.664 165.169ZM306.399 166.317C305.977 165.895 305.977 165.208 306.399 164.786C306.604 164.581 306.876 164.469 307.166 164.469C307.454 164.469 307.727 164.581 307.931 164.786L316.275 173.129L314.743 174.661L306.399 166.317ZM307.169 186.831V185.934L308.065 186.831H307.169ZM310.232 186.831H309.598L307.169 184.402V183.768L323.601 167.335L324.753 168.488L309.918 183.322C309.706 183.534 309.706 183.877 309.918 184.088C310.129 184.3 310.473 184.3 310.684 184.088L325.518 169.253L326.664 170.399L310.232 186.831ZM319.338 179.256L320.869 177.725L323.225 180.08C322.584 180.439 322.05 180.966 321.683 181.601L319.338 179.256ZM325.167 186.829C324.225 186.511 323.499 186.098 323.009 185.6C322.479 185.063 322.222 184.421 322.222 183.636C322.222 182.838 322.533 182.087 323.097 181.522C323.662 180.958 324.413 180.647 325.212 180.647C326.861 180.647 328.202 181.988 328.202 183.636C328.202 184.869 328.859 186.072 329.387 187.038C329.466 187.182 329.561 187.356 329.648 187.524C328.482 187.494 326.716 187.351 325.167 186.829Z" fill="url(#paint9_linear)" style="mix-blend-mode:multiply"/>
</g>
<g clip-path="url(#clip2)">
<path d="M239.686 145.447L287.58 159.017L290.495 148.733L242.6 135.162L239.686 145.447ZM286.352 156.819L282.974 155.861L283.461 154.147C283.594 153.673 283.319 153.181 282.846 153.046C282.373 152.913 281.881 153.188 281.746 153.661C281.746 153.662 281.746 153.662 281.746 153.662L281.261 155.375L277.832 154.404L278.318 152.69C278.452 152.216 278.177 151.724 277.703 151.59C277.231 151.456 276.737 151.73 276.604 152.204L276.118 153.919L272.69 152.947L273.175 151.233L273.175 151.232C273.31 150.76 273.034 150.267 272.561 150.133C272.087 149.999 271.595 150.274 271.461 150.747C271.461 150.748 271.461 150.748 271.461 150.748L270.975 152.461L267.547 151.489L268.033 149.776C268.167 149.302 267.892 148.81 267.418 148.675C266.946 148.542 266.453 148.817 266.318 149.29L265.833 151.004L262.405 150.033L262.891 148.319C263.025 147.845 262.749 147.353 262.276 147.219C261.803 147.084 261.31 147.359 261.176 147.833L260.691 149.548L257.263 148.576L257.748 146.861C257.883 146.389 257.607 145.895 257.134 145.762C256.66 145.628 256.168 145.902 256.034 146.376C256.034 146.376 256.034 146.376 256.034 146.376L255.548 148.09L252.12 147.118L252.606 145.405C252.739 144.931 252.465 144.439 251.991 144.304C251.518 144.171 251.026 144.446 250.891 144.918C250.891 144.918 250.891 144.918 250.892 144.92L250.406 146.633L246.977 145.662L247.462 143.949C247.463 143.948 247.463 143.948 247.463 143.948C247.597 143.474 247.322 142.982 246.849 142.848C246.375 142.713 245.882 142.988 245.749 143.462L245.263 145.175L241.886 144.219L243.828 137.362L288.295 149.962L286.352 156.819Z" fill="url(#paint10_linear)" style="mix-blend-mode:multiply"/>
</g>
<path d="M278.233 22.277L263.711 9.26861C263.537 9.11286 263.231 9.0818 263.029 9.1999L251.299 16.0429C251.096 16.161 251.074 16.3835 251.248 16.5392L256.487 21.2324L253.909 22.177L253.783 22.0639C253.609 21.9082 253.304 21.8773 253.101 21.9954C252.899 22.1135 252.876 22.336 253.05 22.4917L258.101 27.0167C258.275 27.1725 258.581 27.2035 258.783 27.0854C258.986 26.9673 259.009 26.7447 258.835 26.589L258.708 26.4755L260.529 24.8536L265.769 29.5476C265.943 29.7034 266.249 29.7344 266.451 29.6163L278.182 22.7733C278.384 22.6552 278.407 22.4328 278.233 22.277ZM254.554 22.7541L257.127 21.8108L259.883 24.2783L258.064 25.8989L254.554 22.7541L254.554 22.7541ZM277.183 22.4214L267.652 27.9812L253.763 15.5395L263.294 9.9797L277.183 22.4214ZM259.241 22.6158L252.297 16.395L253.03 15.9672L259.975 22.1881L266.919 28.409L266.186 28.8367L259.241 22.6158Z" fill="url(#paint11_linear)" style="mix-blend-mode:multiply"/>
<path d="M259.806 22.7689C260.009 22.6506 260.032 22.4283 259.857 22.2719C259.683 22.1155 259.377 22.0848 259.174 22.2031C258.972 22.3214 258.948 22.5439 259.123 22.7003C259.298 22.8566 259.603 22.8872 259.806 22.7689Z" fill="url(#paint12_linear)" style="mix-blend-mode:multiply"/>
<path d="M263.15 11.671L272.351 19.9573C272.351 19.9573 272.352 19.9577 272.352 19.9581C272.521 20.1103 272.818 20.1406 273.015 20.0252C273.211 19.9098 273.234 19.6924 273.065 19.5402L263.862 11.2531C263.692 11.1001 263.395 11.0699 263.198 11.1853C263.002 11.3007 262.98 11.518 263.15 11.671Z" fill="url(#paint13_linear)" style="mix-blend-mode:multiply"/>
<path d="M261.637 12.5619L266.56 16.9906C266.56 16.991 266.56 16.991 266.56 16.991C266.73 17.1439 267.028 17.1739 267.225 17.0583C267.422 16.9427 267.445 16.7253 267.275 16.5724L262.352 12.1433C262.181 11.99 261.884 11.9596 261.686 12.0752C261.489 12.1908 261.467 12.4086 261.637 12.5619Z" fill="url(#paint14_linear)" style="mix-blend-mode:multiply"/>
<path d="M260.122 13.4503L266.879 19.5327C266.879 19.5331 266.879 19.5331 266.879 19.5331C267.049 19.6858 267.346 19.7157 267.543 19.6002C267.74 19.4847 267.762 19.2675 267.593 19.1148L260.835 13.032C260.665 12.8789 260.368 12.8485 260.171 12.964C259.974 13.0797 259.952 13.2972 260.122 13.4503Z" fill="url(#paint15_linear)" style="mix-blend-mode:multiply"/>
<path d="M258.61 14.3404L262.921 18.2178C263.092 18.3712 263.39 18.4016 263.587 18.2859C263.785 18.1703 263.807 17.9524 263.636 17.799L259.326 13.9213C259.155 13.768 258.857 13.7377 258.659 13.8534C258.462 13.9691 258.44 14.187 258.61 14.3404Z" fill="url(#paint16_linear)" style="mix-blend-mode:multiply"/>
<path d="M257.096 15.2279L265.076 22.4125L265.075 22.4127C265.245 22.5657 265.543 22.5959 265.739 22.4805C265.936 22.365 265.958 22.1477 265.788 21.9946L257.809 14.81C257.639 14.657 257.342 14.6266 257.145 14.7421C256.948 14.8575 256.926 15.0749 257.096 15.2279Z" fill="url(#paint17_linear)" style="mix-blend-mode:multiply"/>
<path d="M255.584 16.1209L258.058 18.343C258.229 18.4968 258.528 18.5274 258.726 18.4113C258.925 18.2953 258.947 18.0765 258.776 17.9227L256.303 15.7006C256.131 15.5467 255.832 15.5162 255.634 15.6322C255.435 15.7484 255.413 15.967 255.584 16.1209Z" fill="url(#paint18_linear)" style="mix-blend-mode:multiply"/>
<path d="M188.877 112.408L184.914 109.169L181.535 118.987L187.046 118.249L194.763 117.216L204.683 115.887L191.335 104.564L188.877 112.408ZM184.157 117.123L185.93 111.974L188.385 113.98L187.542 116.67L184.157 117.123ZM189.593 116.395L192.388 107.472L201.093 114.856L189.593 116.395Z" fill="white"/>
<path d="M196.51 94.0837L195.991 92.65C195.847 92.2542 195.344 91.9852 194.865 92.0493C194.385 92.1135 194.114 92.4861 194.258 92.8819L194.777 94.3156L191.31 94.7796L190.791 93.3459C190.647 92.95 190.144 92.681 189.665 92.7451C189.186 92.8093 188.915 93.1819 189.058 93.5777L189.578 95.0114L186.111 95.4753L185.592 94.0416C185.448 93.6457 184.944 93.3769 184.466 93.4409C183.987 93.505 183.715 93.8777 183.859 94.2736L184.378 95.7073L180.912 96.1711L180.392 94.7374C180.249 94.3416 179.745 94.0727 179.266 94.1367C178.787 94.2009 178.515 94.5735 178.659 94.9694L179.178 96.4031L175.712 96.8669L175.193 95.4332C175.049 95.0374 174.545 94.7685 174.067 94.8326C173.587 94.8967 173.316 95.2694 173.459 95.6652L173.979 97.0989L168.779 97.7947L180.207 129.334L213.137 124.927L201.71 93.3879L196.51 94.0837ZM210.896 123.755L181.431 127.698L171.021 98.9667L174.487 98.5028L174.985 99.8764C175.129 100.272 175.633 100.542 176.112 100.477C176.591 100.413 176.862 100.04 176.719 99.6444L176.221 98.2708L179.687 97.807L180.185 99.1806C180.328 99.5764 180.832 99.8457 181.312 99.7816C181.79 99.7176 182.062 99.3444 181.918 98.9486L181.42 97.575L184.887 97.1112L185.384 98.4847C185.528 98.8806 186.032 99.1499 186.511 99.0858C186.99 99.0217 187.261 98.6485 187.118 98.2528L186.62 96.8792L190.086 96.4153L190.584 97.7889C190.727 98.1848 191.231 98.4542 191.711 98.39C192.189 98.3259 192.46 97.9528 192.317 97.557L191.819 96.1835L195.286 95.7195L195.784 97.0931C195.927 97.4889 196.431 97.7583 196.91 97.6941C197.389 97.6301 197.66 97.257 197.516 96.8612L197.019 95.4876L200.485 95.0237L210.896 123.755Z" fill="white"/>
<path d="M208.835 40.5955L186.486 54.8728C186.218 55.0442 186.199 55.3474 186.444 55.55L200.669 67.289C200.915 67.4916 201.332 67.5167 201.6 67.3453L209.663 62.1941L211.749 64.7666L211.555 64.8908C211.286 65.0622 211.268 65.3657 211.513 65.5683C211.759 65.7709 212.176 65.7959 212.444 65.6245L220.218 60.6584C220.486 60.487 220.504 60.1842 220.258 59.9816C220.013 59.779 219.597 59.7533 219.328 59.9246L219.134 60.0488L215.884 58.2201L223.949 53.0681C224.217 52.8967 224.235 52.5939 223.99 52.3913L209.765 40.6522C209.519 40.4496 209.103 40.4241 208.835 40.5955ZM212.74 64.1337L210.657 61.5647L214.897 58.8547L218.143 60.6817L212.74 64.1338L212.74 64.1337ZM213.683 45.3081L210.768 47.1704L206.323 43.5021L209.238 41.6398L213.683 45.3081ZM211.657 47.9041L214.572 46.0419L220.796 51.1775L217.881 53.0397L211.657 47.9041ZM205.352 44.1226L216.909 53.6603L199.419 64.8337L187.861 55.296L205.352 44.1226ZM211.885 59.4734L201.197 66.3012L200.308 65.5675L210.996 58.7396L221.685 51.9113L222.574 52.6451L211.885 59.4734Z" fill="url(#paint19_linear)" style="mix-blend-mode:multiply"/>
<path d="M211.828 58.726C211.583 58.5238 211.167 58.4984 210.899 58.6699C210.631 58.8409 210.613 59.1431 210.858 59.3453C211.103 59.5475 211.519 59.5732 211.786 59.4022C212.055 59.2307 212.073 58.9282 211.828 58.726Z" fill="url(#paint20_linear)" style="mix-blend-mode:multiply"/>
<path d="M205.189 56.0243L208.529 53.8905L200.806 51.8638L201.829 55.2L199.567 54.6446L200.735 58.8698L202.591 57.6841L205.189 56.0243ZM202.603 53.3466L205.959 54.2274L203.379 55.8757L202.603 53.3466ZM201.565 57.0345L201.299 56.0744L202.162 56.2863L202.256 56.5928L201.565 57.0345Z" fill="url(#paint21_linear)" style="mix-blend-mode:multiply"/>
<path d="M193.533 54.473L192.563 55.0923L193.45 55.8247L194.42 55.2053L193.533 54.473Z" fill="url(#paint22_linear)" style="mix-blend-mode:multiply"/>
<path d="M198.969 50.9914L197.999 51.6108L198.886 52.3431L199.856 51.7237L198.969 50.9914Z" fill="url(#paint23_linear)" style="mix-blend-mode:multiply"/>
<path d="M204.406 47.5094L203.436 48.1292L204.323 48.8615L205.293 48.2417L204.406 47.5094Z" fill="url(#paint24_linear)" style="mix-blend-mode:multiply"/>
<path d="M207.886 50.3874L206.916 51.0073L207.803 51.7393L208.773 51.1195L207.886 50.3874Z" fill="url(#paint25_linear)" style="mix-blend-mode:multiply"/>
<path d="M211.365 53.2655L210.395 53.8854L211.282 54.6177L212.253 53.9979L211.365 53.2655Z" fill="url(#paint26_linear)" style="mix-blend-mode:multiply"/>
<path d="M200.492 60.2295L199.523 60.8489L200.41 61.5812L201.38 60.9619L200.492 60.2295Z" fill="url(#paint27_linear)" style="mix-blend-mode:multiply"/>
<path d="M197.013 57.3515L196.043 57.9708L196.93 58.7029L197.9 58.0835L197.013 57.3515Z" fill="url(#paint28_linear)" style="mix-blend-mode:multiply"/>
<path d="M205.929 56.7479L204.959 57.3673L205.846 58.0996L206.816 57.4803L205.929 56.7479Z" fill="url(#paint29_linear)" style="mix-blend-mode:multiply"/>
<circle cx="336.5" cy="126.5" r="10.5" stroke="url(#paint30_linear)" stroke-width="10" style="mix-blend-mode:multiply"/>
<path d="M255 291.807V287.894H249.053V281H244.947V287.894H239V291.807H244.947V299H249.053V291.807H255Z" fill="white"/>
<path d="M295.472 324C295.472 322.494 291.366 309.651 307.38 314.17C323.394 318.689 328.321 311.157 331.606 296.641C334.891 282.125 344.472 280.756 352 281.029" stroke="url(#paint31_linear)" stroke-width="8" stroke-linecap="round" stroke-linejoin="round" style="mix-blend-mode:multiply"/>
<path d="M339.197 76.7795C338.668 77.0496 334.888 80.7878 333.618 74.3746C332.348 67.9614 328.822 67.5872 323.135 69.0392C317.448 70.4913 315.257 67.3843 314.01 64.7012" stroke="url(#paint32_linear)" stroke-width="8" stroke-linecap="round" stroke-linejoin="round" style="mix-blend-mode:multiply"/>
<defs>
<linearGradient id="paint0_linear" x1="158.545" y1="43.0851" x2="121.853" y2="57.9425" gradientUnits="userSpaceOnUse">
<stop stop-color="#FFC000"/>
<stop offset="1" stop-color="#FF8A00"/>
</linearGradient>
<linearGradient id="paint1_linear" x1="264.921" y1="135.238" x2="264.188" y2="109.638" gradientUnits="userSpaceOnUse">
<stop stop-color="#FFC000"/>
<stop offset="1" stop-color="#FF8A00"/>
</linearGradient>
<linearGradient id="paint2_linear" x1="261.286" y1="126.212" x2="260.57" y2="118.116" gradientUnits="userSpaceOnUse">
<stop stop-color="#FFC000"/>
<stop offset="1" stop-color="#FF8A00"/>
</linearGradient>
<linearGradient id="paint3_linear" x1="222.649" y1="44.6771" x2="192.165" y2="53.341" gradientUnits="userSpaceOnUse">
<stop stop-color="#FFC000"/>
<stop offset="1" stop-color="#FF8A00"/>
</linearGradient>
<linearGradient id="paint4_linear" x1="218.182" y1="161.317" x2="218.931" y2="164.483" gradientUnits="userSpaceOnUse">
<stop stop-color="#FFC000"/>
<stop offset="1" stop-color="#FF8A00"/>
</linearGradient>
<linearGradient id="paint5_linear" x1="213.262" y1="162.427" x2="213.124" y2="164.753" gradientUnits="userSpaceOnUse">
<stop stop-color="#FFC000"/>
<stop offset="1" stop-color="#FF8A00"/>
</linearGradient>
<linearGradient id="paint6_linear" x1="225.601" y1="151.087" x2="223.368" y2="158.577" gradientUnits="userSpaceOnUse">
<stop stop-color="#FFC000"/>
<stop offset="1" stop-color="#FF8A00"/>
</linearGradient>
<linearGradient id="paint7_linear" x1="221.031" y1="145.507" x2="214.85" y2="167.763" gradientUnits="userSpaceOnUse">
<stop stop-color="#FFC000"/>
<stop offset="1" stop-color="#FF8A00"/>
</linearGradient>
<linearGradient id="paint8_linear" x1="177.506" y1="1.59545" x2="138.648" y2="18.6787" gradientUnits="userSpaceOnUse">
<stop stop-color="#FFC000"/>
<stop offset="1" stop-color="#FF8A00"/>
</linearGradient>
<linearGradient id="paint9_linear" x1="330.661" y1="163.996" x2="301.615" y2="172.819" gradientUnits="userSpaceOnUse">
<stop stop-color="#FFC000"/>
<stop offset="1" stop-color="#FF8A00"/>
</linearGradient>
<linearGradient id="paint10_linear" x1="237.174" y1="138.828" x2="272.932" y2="173.842" gradientUnits="userSpaceOnUse">
<stop stop-color="#FFC000"/>
<stop offset="1" stop-color="#FF8A00"/>
</linearGradient>
<linearGradient id="paint11_linear" x1="277.979" y1="22.6003" x2="258.999" y2="6.62045" gradientUnits="userSpaceOnUse">
<stop stop-color="#FFC000"/>
<stop offset="1" stop-color="#FF8A00"/>
</linearGradient>
<linearGradient id="paint12_linear" x1="260.147" y1="22.5578" x2="259.386" y2="21.8569" gradientUnits="userSpaceOnUse">
<stop stop-color="#FFC000"/>
<stop offset="1" stop-color="#FF8A00"/>
</linearGradient>
<linearGradient id="paint13_linear" x1="273.226" y1="19.7114" x2="270.465" y2="21.7029" gradientUnits="userSpaceOnUse">
<stop stop-color="#FFC000"/>
<stop offset="1" stop-color="#FF8A00"/>
</linearGradient>
<linearGradient id="paint14_linear" x1="267.493" y1="16.7943" x2="264.42" y2="18.2894" gradientUnits="userSpaceOnUse">
<stop stop-color="#FFC000"/>
<stop offset="1" stop-color="#FF8A00"/>
</linearGradient>
<linearGradient id="paint15_linear" x1="267.786" y1="19.3149" x2="264.87" y2="21.1074" gradientUnits="userSpaceOnUse">
<stop stop-color="#FFC000"/>
<stop offset="1" stop-color="#FF8A00"/>
</linearGradient>
<linearGradient id="paint16_linear" x1="263.864" y1="18.0289" x2="260.733" y2="19.3665" gradientUnits="userSpaceOnUse">
<stop stop-color="#FFC000"/>
<stop offset="1" stop-color="#FF8A00"/>
</linearGradient>
<linearGradient id="paint17_linear" x1="265.967" y1="22.181" x2="263.136" y2="24.0904" gradientUnits="userSpaceOnUse">
<stop stop-color="#FFC000"/>
<stop offset="1" stop-color="#FF8A00"/>
</linearGradient>
<linearGradient id="paint18_linear" x1="259.028" y1="18.1751" x2="255.86" y2="18.6694" gradientUnits="userSpaceOnUse">
<stop stop-color="#FFC000"/>
<stop offset="1" stop-color="#FF8A00"/>
</linearGradient>
<linearGradient id="paint19_linear" x1="209.469" y1="40.8518" x2="198.396" y2="66.5271" gradientUnits="userSpaceOnUse">
<stop stop-color="#FFC000"/>
<stop offset="1" stop-color="#FF8A00"/>
</linearGradient>
<linearGradient id="paint20_linear" x1="211.393" y1="58.3857" x2="210.89" y2="59.4599" gradientUnits="userSpaceOnUse">
<stop stop-color="#FFC000"/>
<stop offset="1" stop-color="#FF8A00"/>
</linearGradient>
<linearGradient id="paint21_linear" x1="203.789" y1="50.1266" x2="200.873" y2="58.4991" gradientUnits="userSpaceOnUse">
<stop stop-color="#FFC000"/>
<stop offset="1" stop-color="#FF8A00"/>
</linearGradient>
<linearGradient id="paint22_linear" x1="193.541" y1="54.4988" x2="193.038" y2="55.573" gradientUnits="userSpaceOnUse">
<stop stop-color="#FFC000"/>
<stop offset="1" stop-color="#FF8A00"/>
</linearGradient>
<linearGradient id="paint23_linear" x1="198.977" y1="51.0172" x2="198.474" y2="52.0914" gradientUnits="userSpaceOnUse">
<stop stop-color="#FFC000"/>
<stop offset="1" stop-color="#FF8A00"/>
</linearGradient>
<linearGradient id="paint24_linear" x1="204.415" y1="47.5351" x2="203.911" y2="48.6101" gradientUnits="userSpaceOnUse">
<stop stop-color="#FFC000"/>
<stop offset="1" stop-color="#FF8A00"/>
</linearGradient>
<linearGradient id="paint25_linear" x1="207.895" y1="50.4132" x2="207.391" y2="51.4882" gradientUnits="userSpaceOnUse">
<stop stop-color="#FFC000"/>
<stop offset="1" stop-color="#FF8A00"/>
</linearGradient>
<linearGradient id="paint26_linear" x1="211.374" y1="53.2913" x2="210.871" y2="54.3663" gradientUnits="userSpaceOnUse">
<stop stop-color="#FFC000"/>
<stop offset="1" stop-color="#FF8A00"/>
</linearGradient>
<linearGradient id="paint27_linear" x1="200.501" y1="60.2553" x2="199.998" y2="61.3295" gradientUnits="userSpaceOnUse">
<stop stop-color="#FFC000"/>
<stop offset="1" stop-color="#FF8A00"/>
</linearGradient>
<linearGradient id="paint28_linear" x1="197.021" y1="57.3772" x2="196.518" y2="58.4515" gradientUnits="userSpaceOnUse">
<stop stop-color="#FFC000"/>
<stop offset="1" stop-color="#FF8A00"/>
</linearGradient>
<linearGradient id="paint29_linear" x1="205.937" y1="56.7737" x2="205.434" y2="57.848" gradientUnits="userSpaceOnUse">
<stop stop-color="#FFC000"/>
<stop offset="1" stop-color="#FF8A00"/>
</linearGradient>
<linearGradient id="paint30_linear" x1="351.597" y1="111.75" x2="316.794" y2="122.008" gradientUnits="userSpaceOnUse">
<stop stop-color="#FFC000"/>
<stop offset="1" stop-color="#FF8A00"/>
</linearGradient>
<linearGradient id="paint31_linear" x1="351.259" y1="282.04" x2="290.918" y2="305.616" gradientUnits="userSpaceOnUse">
<stop stop-color="#FFC000"/>
<stop offset="1" stop-color="#FF8A00"/>
</linearGradient>
<linearGradient id="paint32_linear" x1="314.497" y1="64.7794" x2="333.501" y2="81.7222" gradientUnits="userSpaceOnUse">
<stop stop-color="#FFC000"/>
<stop offset="1" stop-color="#FF8A00"/>
</linearGradient>
<clipPath id="clip0">
<rect width="27" height="28" fill="white" transform="translate(0 303)"/>
</clipPath>
<clipPath id="clip1">
<rect width="26" height="26" fill="white" transform="translate(305 163)"/>
</clipPath>
<clipPath id="clip2">
<rect width="42.7584" height="42.7584" fill="white" transform="translate(256.848 176.179) rotate(-119.18)"/>
</clipPath>
</defs>
</svg>
