<?xml version="1.0" encoding="UTF-8" standalone="no"?>
<svg
   xmlns:dc="http://purl.org/dc/elements/1.1/"
   xmlns:cc="http://creativecommons.org/ns#"
   xmlns:rdf="http://www.w3.org/1999/02/22-rdf-syntax-ns#"
   xmlns:svg="http://www.w3.org/2000/svg"
   xmlns="http://www.w3.org/2000/svg"
   xmlns:xlink="http://www.w3.org/1999/xlink"
   xmlns:sodipodi="http://sodipodi.sourceforge.net/DTD/sodipodi-0.dtd"
   xmlns:inkscape="http://www.inkscape.org/namespaces/inkscape"
   width="934.3811"
   height="518.70117"
   viewBox="0 0 247.22165 137.2397"
   version="1.1"
   id="svg8"
   inkscape:export-filename="/home/sergio/Dropbox/Compartidas/Aula de Software Libre/Grafismo/proyectos/ideas/logotipo-completo-degradado.png"
   inkscape:export-xdpi="71.995209"
   inkscape:export-ydpi="71.995209"
   inkscape:version="1.0 (6e3e5246a0, 2020-05-07)"
   sodipodi:docname="logotipo-completo-degradado.svg">
  <defs
     id="defs2">
    <linearGradient
       id="linearGradient1498"
       inkscape:collect="always">
      <stop
         id="stop1494"
         offset="0"
         style="stop-color:#ff8a00;stop-opacity:1" />
      <stop
         id="stop1496"
         offset="1"
         style="stop-color:#ffc000;stop-opacity:1" />
    </linearGradient>
    <linearGradient
       inkscape:collect="always"
       xlink:href="#linearGradient1498"
       id="linearGradient2412"
       gradientUnits="userSpaceOnUse"
       x1="272.53003"
       y1="122.45345"
       x2="272.50485"
       y2="116.85218"
       gradientTransform="matrix(10.215597,0,0,9.9535457,-2702.5134,-1128.958)" />
    <linearGradient
       inkscape:collect="always"
       xlink:href="#linearGradient1498"
       id="linearGradient1970-2-7"
       gradientUnits="userSpaceOnUse"
       gradientTransform="translate(-172.06185,11.834255)"
       x1="163.13019"
       y1="78.23851"
       x2="163.13019"
       y2="22.419069" />
    <linearGradient
       y2="117.0732"
       x2="272.53491"
       y1="122.53078"
       x1="272.53491"
       gradientUnits="userSpaceOnUse"
       id="linearGradient3239"
       xlink:href="#linearGradient1498"
       inkscape:collect="always"
       gradientTransform="matrix(10.215597,0,0,10.215597,-2697.7623,-1161.8371)" />
    <linearGradient
       y2="116.91779"
       x2="272.52197"
       y1="122.37537"
       x1="272.52197"
       gradientUnits="userSpaceOnUse"
       id="linearGradient3241"
       xlink:href="#linearGradient1498"
       inkscape:collect="always"
       gradientTransform="matrix(10.215597,0,0,10.215597,-2695.5044,-1160.2495)" />
    <linearGradient
       y2="117.22861"
       x2="272.52197"
       y1="122.68619"
       x1="272.52197"
       gradientUnits="userSpaceOnUse"
       id="linearGradient3243"
       xlink:href="#linearGradient1498"
       inkscape:collect="always"
       gradientTransform="matrix(10.215597,0,0,10.215597,-2691.5365,-1163.4247)" />
  </defs>
  <sodipodi:namedview
     lock-margins="true"
     inkscape:guide-bbox="true"
     showguides="true"
     id="base"
     pagecolor="#ffffff"
     bordercolor="#666666"
     borderopacity="1.0"
     inkscape:pageopacity="0.0"
     inkscape:pageshadow="2"
     inkscape:zoom="1.4142136"
     inkscape:cx="446.07014"
     inkscape:cy="197.14578"
     inkscape:document-units="mm"
     inkscape:current-layer="layer1"
     inkscape:document-rotation="0"
     showgrid="false"
     inkscape:window-width="2560"
     inkscape:window-height="1403"
     inkscape:window-x="2560"
     inkscape:window-y="0"
     inkscape:window-maximized="1"
     fit-margin-top="117"
     fit-margin-left="117"
     fit-margin-right="117"
     fit-margin-bottom="117"
     units="px" />
  <metadata
     id="metadata5">
    <rdf:RDF>
      <cc:Work
         rdf:about="">
        <dc:format>image/svg+xml</dc:format>
        <dc:type
           rdf:resource="http://purl.org/dc/dcmitype/StillImage" />
        <dc:title></dc:title>
      </cc:Work>
    </rdf:RDF>
  </metadata>
  <g
     style="opacity:1"
     inkscape:label="Layer 1"
     inkscape:groupmode="layer"
     id="layer1"
     transform="translate(66.111535,1.821247)">
    <g
       id="g897"
       inkscape:export-xdpi="149.99792"
       inkscape:export-ydpi="149.99792">
      <path
         sodipodi:nodetypes="ccccccccccscccccccccscscccccccccccscccssccsc"
         id="path2205-9"
         style="font-style:normal;font-variant:normal;font-weight:normal;font-stretch:normal;font-size:7.69327px;line-height:0;font-family:'Shadows Into Light';-inkscape-font-specification:'Shadows Into Light, ';text-align:end;letter-spacing:0px;word-spacing:0px;white-space:pre;fill:url(#linearGradient2412);fill-opacity:1;stroke:none;stroke-width:10.0838"
         d="m 39.997911,82.758362 c -0.511801,1.14655 -1.176632,2.467684 -1.995515,3.963303 -0.767191,1.495621 -1.688434,2.916485 -2.763012,4.262509 -1.023297,1.346021 -2.225774,2.492665 -3.60723,3.439939 -1.381455,0.947584 -2.91645,1.420771 -4.604884,1.420771 -8.703382,-2.382675 -5.016676,-21.49448 -3.223123,-28.266276 0.767191,-2.492666 1.816435,-4.611377 3.14671,-6.356333 1.381455,-1.744857 3.09553,-2.99124 5.142225,-3.73905 2.046695,-0.747511 4.528268,-0.797278 7.444719,-0.149303 0.153234,-1.395884 0.180816,-3.26536 0.08172,-5.608525 -0.102156,-2.343162 -0.25539,-4.810946 -0.460723,-7.403347 -0.205334,-2.592402 -0.409646,-5.085068 -0.613957,-7.478 -0.205334,-2.442897 -0.333029,-4.43699 -0.384107,-5.982479 0,-0.448903 0.204312,-0.772395 0.613957,-0.972461 0.460724,-0.249834 0.945965,-0.399136 1.458277,-0.448904 0.511801,-0.04977 0.998064,-0.04977 1.458174,0 0.511802,0.04977 0.843809,0.127405 0.998064,0.223954 -0.102156,6.132081 -0.129738,12.164328 -0.08172,18.096939 0.05108,5.882745 0.105221,11.76549 0.153234,17.648234 0.102156,5.832877 0.204312,11.640772 0.30749,17.423882 0.102156,5.783009 0.153234,4.574421 0.153234,10.357424 0,0.548437 -0.05108,1.122084 -0.153234,1.719991 -0.05108,0.647957 -0.489327,0.972454 -1.304736,0.972454 -0.30749,0 -0.613958,-0.0996 -0.920426,-0.299617 -0.307489,-0.14929 -0.511801,-0.398127 -0.613957,-0.747497 z M 36.69766,61.071977 c -1.586175,-0.09954 -3.069991,0.523557 -4.451446,1.869474 -1.330377,1.296251 -2.507214,2.99124 -3.53051,5.085067 -0.972525,2.093928 -1.765153,4.412109 -2.379213,6.954642 -0.613957,2.492667 -0.998064,4.910583 -1.151196,7.253647 -0.102156,2.293297 0.05108,4.337356 0.460724,6.132081 0.460723,1.794719 1.253454,3.016123 2.379212,3.6642 1.125657,0 2.174595,-0.42402 3.146813,-1.271264 0.972525,-0.896824 1.867513,-2.019081 2.686191,-3.365098 0.818269,-1.346019 1.534996,-2.841638 2.148953,-4.48686 0.613957,-1.694989 1.125963,-3.315228 1.534996,-4.860714 0.460723,-1.545489 0.79273,-2.941373 0.998064,-4.187757 0.256411,-1.29615 0.384106,-2.268312 0.384106,-2.916389 0,-0.498671 0.03065,-1.296051 0.08172,-2.39303 0.05108,-1.096781 0.03065,-2.193562 -0.08172,-3.290344 -0.102156,-1.096782 -0.332007,-2.068845 -0.690574,-2.91639 -0.30749,-0.847046 -0.819291,-1.271265 -1.534996,-1.271265 z" />
      <path
         id="path2207-6"
         style="font-style:normal;font-variant:normal;font-weight:normal;font-stretch:normal;font-size:7.69327px;line-height:0;font-family:'Shadows Into Light';-inkscape-font-specification:'Shadows Into Light, ';text-align:end;letter-spacing:0px;word-spacing:0px;white-space:pre;fill:url(#linearGradient3239);fill-opacity:1;stroke:none;stroke-width:10.2156"
         d="m 55.033067,79.247848 q -0.384106,0.08172 -1.151196,0.22985 -0.767191,0.153234 -1.611714,0.08172 -0.84483,-0.08172 -1.458277,-0.460723 -0.690574,-0.384107 -0.690574,-1.304736 0,-0.537341 0.229851,-0.767192 0.229851,-0.229851 0.767191,-0.690574 1.688536,-1.381455 2.839732,-3.530408 1.228017,-2.225774 2.225774,-4.681706 0.998064,-2.532753 2.072234,-4.988685 1.151196,-2.532753 2.609472,-4.528267 1.458174,-1.995515 3.607229,-3.22343 2.148953,-1.228017 5.295664,-1.151298 1.304736,0 2.916451,0.613958 1.611816,0.613957 2.993272,1.688434 1.381455,0.998063 2.302493,2.456033 0.920425,1.458175 0.920425,3.22343 0.384107,0.613957 -0.767191,1.765255 -1.074476,1.151196 -2.99317,2.532753 -1.918796,1.304736 -4.374727,2.76291 -2.379213,1.381558 -4.604987,2.609473 -2.225672,1.228016 -3.914208,2.149055 -1.688434,0.920425 -2.225672,1.381455 -0.384107,0.767191 -0.613958,1.765255 -0.229851,0.998064 -0.384106,1.918693 -0.08172,0.843809 -0.153234,1.611715 0,0.690575 0,1.074579 0,1.458174 -0.153234,3.223429 -0.08172,1.765255 0.153234,3.37697 0.307489,1.534994 1.304736,2.609468 0.998064,0.998064 3.37697,0.998064 2.532753,0 4.758425,-1.228014 2.225774,-1.304734 4.144468,-3.146709 1.918795,-1.841974 3.453791,-3.990927 1.611715,-2.149056 2.839732,-3.99103 1.304736,-1.918693 2.302493,-3.14671 0.998064,-1.228017 1.688434,-1.228017 0.767191,0 1.611715,0.307489 0.921446,0.229851 0.921446,1.227915 0,1.381557 -1.151297,3.300251 -1.074477,1.918693 -2.916451,4.067748 -1.765255,2.148953 -4.144468,4.297906 -2.302493,2.072234 -4.681706,3.760765 -2.379212,1.611721 -4.681706,2.686195 -2.302493,0.998064 -4.067748,0.998064 -3.453689,0 -5.218945,-1.688531 -1.765153,-1.688438 -2.53265,-4.221196 -0.690575,-2.532747 -0.767192,-5.372479 0,-2.916451 -0.08172,-5.372383 z M 69.155006,58.525509 q -1.304736,0 -2.763012,1.304736 -1.458277,1.228017 -2.763013,3.069991 -1.227915,1.765255 -2.072234,3.683949 -0.767191,1.841974 -0.767191,3.069991 1.151298,0 3.300251,-0.84483 2.225774,-0.921447 4.374727,-2.225672 2.148953,-1.304736 3.76077,-2.763012 1.611715,-1.458175 1.611715,-2.762911 0,-0.690574 -0.537341,-1.151298 -0.53734,-0.460723 -1.304736,-0.767191 -0.690574,-0.307489 -1.458276,-0.460723 -0.767192,-0.153234 -1.381456,-0.153234 z" />
      <path
         id="path2209-2"
         style="font-style:normal;font-variant:normal;font-weight:normal;font-stretch:normal;font-size:7.69327px;line-height:0;font-family:'Shadows Into Light';-inkscape-font-specification:'Shadows Into Light, ';text-align:end;letter-spacing:0px;word-spacing:0px;white-space:pre;fill:url(#linearGradient3241);fill-opacity:1;stroke:none;stroke-width:10.2156"
         d="m 113.24134,95.417707 q -0.38411,-1.995518 -0.69058,-4.758423 -0.22985,-2.839736 -0.53734,-5.679468 -0.30749,-2.916553 -0.76719,-5.449204 -0.38411,-2.532752 -1.22791,-4.144467 -3.91433,7.981956 -6.90752,12.586841 -2.99329,4.528269 -5.295675,6.523677 -2.225778,1.918798 -3.760769,1.842078 -1.535001,-0.0817 -2.532755,-1.381551 -0.998067,-1.304744 -1.458174,-3.300252 -0.384107,-2.072238 -0.537347,-3.83739 0,-1.688536 0.767197,-4.758527 0.767184,-3.069992 2.072238,-6.677119 1.304731,-3.684051 3.069882,-7.444718 1.841981,-3.76077 3.914209,-6.830659 2.072244,-3.069991 4.298024,-5.065506 2.22579,-1.995515 4.45147,-1.995515 3.30026,-0.53734 4.83526,1.458277 1.61171,1.918693 0.61395,6.52368 0,5.065506 0.38411,8.672735 0.46072,3.607127 0.92043,6.907378 0.53734,3.300251 0.92144,6.90748 0.46073,3.607229 0.46073,8.672629 0,0.921447 -0.22985,1.611721 -0.15324,0.613957 -1.84198,0.613957 -0.22985,0 -0.61396,-0.384107 -0.30749,-0.384107 -0.30749,-0.613957 z m -4.14447,-34.30694 q -0.84381,-1.228017 -2.30251,-0.229851 -1.45818,0.998064 -3.07001,3.300251 -1.61172,2.302391 -3.30016,5.525923 -1.688541,3.22343 -3.146812,6.52368 -1.458184,3.300251 -2.532658,6.293421 -1.074474,2.916451 -1.458281,4.835246 0,2.76301 0.843817,3.146707 0.844824,0.30647 2.072228,-0.921444 1.228021,-1.227914 2.763012,-3.530407 1.611724,-2.302494 3.070004,-4.911966 1.53501,-2.609472 2.83975,-5.065506 1.38146,-2.455931 2.14896,-3.990927 0.69058,-1.611715 1.07449,-2.993272 0.38411,-1.381455 0.61396,-2.609472 0.30749,-1.304736 0.30749,-2.609472 0.0817,-1.304736 0.0817,-2.762911 z" />
      <path
         id="path2211-8"
         style="font-style:normal;font-variant:normal;font-weight:normal;font-stretch:normal;font-size:7.69327px;line-height:0;font-family:'Shadows Into Light';-inkscape-font-specification:'Shadows Into Light, ';text-align:end;letter-spacing:0px;word-spacing:0px;white-space:pre;fill:url(#linearGradient3243);fill-opacity:1;stroke:none;stroke-width:10.2156"
         d="m 130.33319,93.086922 q 0,0.0817 1.61171,-0.920427 1.68844,-0.998064 3.91421,-2.609475 2.30249,-1.688534 4.68171,-3.607227 2.37921,-1.995515 3.9142,-3.76077 1.535,-1.765255 1.61172,-2.99317 0.15323,-1.304736 -2.07223,-1.688536 -2.76291,-0.384107 -4.68171,0.08172 -1.84197,0.460723 -3.37697,1.074578 -1.535,0.613958 -2.91645,1.151196 -1.30474,0.53734 -2.91645,0.384106 -3.37697,0 -4.68171,-2.072233 -1.22801,-2.149056 -1.22801,-5.756285 0,-3.60723 1.61171,-6.830659 1.61171,-3.300251 4.14447,-5.679463 2.53275,-2.379213 5.833,-3.760668 3.30015,-1.458277 6.75394,-1.458277 1.38146,0 2.37921,0.229851 0.99807,0.229851 0.99807,1.765256 0,1.074476 -0.92145,2.072233 -0.92042,0.921447 -2.07223,0.921447 -0.0817,0 -0.38411,-0.08172 -0.30749,-0.153234 -0.61396,-0.384107 -0.30749,-0.229851 -0.61395,-0.307489 -0.30749,-0.153234 -0.38411,-0.153234 -2.45593,-0.690575 -4.75843,0.690574 -2.30249,1.381557 -4.14446,3.76077 -1.76526,2.302493 -2.83974,5.065404 -1.07447,2.686293 -1.07447,4.835246 0,0.843808 0.30749,1.381455 0.3841,0.460724 0.92144,0.690575 0.61396,0.22985 1.30474,0.307489 0.76719,0 1.535,0 1.53499,0 3.06999,-0.460723 1.61171,-0.460724 3.06989,-1.074477 1.53499,-0.613957 3.06999,-1.074476 1.61171,-0.460724 3.30025,-0.460724 0.76719,0 1.68843,0.460724 0.92145,0.384106 1.68854,1.228017 0.76719,0.767191 1.30473,1.841974 0.53734,0.998064 0.61396,2.225774 0.46073,1.074477 -0.30749,2.83963 -0.69057,1.765255 -2.14895,3.760769 -1.45828,1.995515 -3.53051,4.067749 -2.07223,1.995415 -4.14447,3.683946 -2.07223,1.611721 -4.06764,2.609475 -1.99552,1.074474 -3.37697,0.998064 -1.535,0 -1.84198,-0.921444 -0.22985,-0.920427 -0.22985,-2.072238 z" />
      <path
         sodipodi:nodetypes="ccssscsssccccccccscscccccsccsccscccccccccc"
         id="path1180-6-2-4-1-7-2"
         style="font-variation-settings:normal;opacity:1;vector-effect:none;fill:url(#linearGradient1970-2-7);fill-opacity:1;stroke:none;stroke-width:0.353727;stroke-linecap:round;stroke-linejoin:round;stroke-miterlimit:4;stroke-dasharray:none;stroke-dashoffset:0;stroke-opacity:1;stop-color:#000000;stop-opacity:1"
         d="m -8.9656671,29.135003 c -14.4640119,-2.2e-4 -26.1895679,11.725065 -26.1896179,26.189098 1.8e-4,11.14942 5.658191,18.096195 12.298992,24.736991 2.966966,2.966974 5.291667,8.056705 5.291667,11.421525 v 7.53029 c 0,3.393253 4.856361,5.448983 8.5984403,5.449283 3.742481,10e-5 8.59947694,-2.05574 8.59947694,-5.449283 v -7.53029 c 0,-3.33955 2.32468456,-8.454549 5.29166646,-11.421525 C 10.913483,74.072563 17.223317,66.473388 17.22343,55.324101 17.223377,40.86028 5.4981511,29.135064 -8.9656671,29.135003 Z m -0.2816384,18.151345 c 1.0233316,0 1.6633931,0.333016 1.9192637,0.99839 0.256069,0.665377 0.3839554,1.432565 0.3839554,2.302184 -0.3071522,0.562539 -0.6910388,0.971762 -1.1513503,1.227834 -0.4603908,0.204991 -0.9465098,0.256315 -1.4583092,0.153479 -0.4603801,-0.153233 -0.8695311,-0.486248 -1.2278331,-0.998389 -0.307031,-0.511265 -0.460952,-3.068335 -0.460952,-2.147673 v -5.29e-4 -5.3e-4 c 0,-0.613701 0.204843,-1.023053 0.613915,-1.227314 0.409301,-0.204992 0.8696408,-0.307475 1.3813105,-0.307475 z m 0.097152,13.034167 c 0.623271,0 1.112893,0.0972 1.4691598,0.29197 0.4009919,0.155967 0.6009984,0.525071 0.6009984,1.107427 0,2.29303 -0.026352,5.641879 -0.070797,8.362462 0,2.681629 -0.026858,5.421913 -0.071313,8.22017 v 8.219652 c 0,2.720583 0.044413,0.955072 0.1333236,3.170349 0.044458,0.660339 -0.1084686,1.08831 -0.4676696,1.28261 -0.3120813,0.233563 -0.7118244,0.34985 -1.2019941,0.34985 -0.5343578,0 -0.9803501,-0.116287 -1.3363516,-0.34985 -0.356537,-0.194765 -0.489921,-0.622424 -0.401011,-1.28261 l 0.01447,0.0072 c 0,-2.526204 -0.06217,-0.954926 -0.199988,-3.75326 -0.08891,-2.798254 -0.200091,-5.616101 -0.334346,-8.453231 -0.08891,-2.876005 -0.113102,-5.693852 -0.07131,-8.453231 0.04445,-2.759379 0.248018,-6.185426 0.600996,-8.595005 0.08891,-0.0388 0.289436,-0.06253 0.6015139,-0.06253 0.356534,-0.0388 0.6009534,-0.06201 0.7343219,-0.06201 z" />
    </g>
    <g
       aria-label="i"
       transform="matrix(8.8911544,0,0,7.7595672,-2475.6764,-863.90097)"
       id="text1598-7-4-8-8-0"
       style="font-style:normal;font-variant:normal;font-weight:normal;font-stretch:normal;font-size:7.69327px;line-height:0;font-family:'Shadows Into Light';-inkscape-font-specification:'Shadows Into Light, ';text-align:end;letter-spacing:0px;word-spacing:0px;white-space:pre;shape-inside:url(#rect1600-0-0-0-6-5);opacity:1;fill:#ffffff;fill-opacity:1;stroke:none" />
  </g>
</svg>
